<?xml version="1.0" standalone="no"?>
<!DOCTYPE svg PUBLIC "-//W3C//DTD SVG 1.1//EN" "http://www.w3.org/Graphics/SVG/1.1/DTD/svg11.dtd" >
<svg xmlns="http://www.w3.org/2000/svg" xmlns:xlink="http://www.w3.org/1999/xlink" version="1.1">
<metadata></metadata>
<defs>
<font id="antonregular" horiz-adv-x="1012" >
<font-face units-per-em="2048" ascent="1638" descent="-410" />
<missing-glyph horiz-adv-x="480" />
<glyph unicode="&#xfb01;" horiz-adv-x="1072" d="M40 1161v273h65v102q0 242 242 242q114 0 184 -29v-221q-25 5 -33 5q-31 0 -38 -22.5t-7 -57.5v-19h78v-277h-71v-1157h-355v1161h-65zM644 0v1500h358v-1500h-358zM644 1592v298h358v-298h-358z" />
<glyph unicode="&#xfb02;" horiz-adv-x="1082" d="M40 1161v273h65v102q0 242 242 242q114 0 184 -29v-221q-25 5 -33 5q-31 0 -38 -22.5t-7 -57.5v-19h78v-277h-71v-1157h-355v1161h-65zM646 0v1760h364v-1760h-364z" />
<glyph horiz-adv-x="0" />
<glyph horiz-adv-x="682" />
<glyph horiz-adv-x="0" />
<glyph horiz-adv-x="0" />
<glyph unicode="&#xd;" horiz-adv-x="480" />
<glyph unicode=" "  horiz-adv-x="480" />
<glyph unicode="&#x09;" horiz-adv-x="480" />
<glyph unicode="&#xa0;" horiz-adv-x="480" />
<glyph unicode="!" horiz-adv-x="469" d="M55 1v298h358v-298h-358zM55 1760h358l-70 -1281h-218z" />
<glyph unicode="&#x22;" horiz-adv-x="878" d="M41 1760h352l-76 -636h-176zM481 1760h352l-76 -636h-176z" />
<glyph unicode="#" horiz-adv-x="1119" d="M38 0l99 509h-95v232h140l28 145h-110v232h155l93 475h284l-93 -475h166l93 475h284l-93 -475h93v-232h-138l-28 -145h108v-232h-154l-99 -509h-283l99 509h-167l-99 -509h-283zM466 741h166l28 145h-166z" />
<glyph unicode="$" horiz-adv-x="946" d="M34 488v55h348v-42q0 -154 97 -154q42 0 61.5 26t19.5 61q0 62 -63 126l-287 289q-158 158 -158 343q0 100 45.5 176.5t121 125t165.5 64.5v121h173v-118q171 -22 260 -141t89 -315h-357v65q0 43 -23 66t-61 23q-42 0 -63 -21t-21 -56q0 -50 99 -148l280 -276 q62 -61 106.5 -148t44.5 -197q0 -165 -101 -263.5t-253 -115.5v-147h-173v149q-188 22 -269 132t-81 320z" />
<glyph unicode="%" horiz-adv-x="2164" d="M42 948v363q0 202 97 310t294 108t294.5 -108t97.5 -310v-363q0 -191 -102.5 -305.5t-289.5 -114.5q-186 0 -288.5 114.5t-102.5 305.5zM340 889q0 -42 27 -70.5t66 -28.5t66 28.5t27 70.5v486q0 59 -17 93t-76 34q-58 0 -75.5 -34.5t-17.5 -92.5v-486zM660 0l540 1767 h324l-541 -1767h-323zM1339 402v363q0 202 97 310t294 108t294.5 -108t97.5 -310v-363q0 -191 -102.5 -305.5t-289.5 -114.5q-186 0 -288.5 114.5t-102.5 305.5zM1637 343q0 -42 27 -70.5t66 -28.5t66 28.5t27 70.5v486q0 59 -17 93t-76 34q-58 0 -75.5 -34.5t-17.5 -92.5 v-486z" />
<glyph unicode="&#x26;" horiz-adv-x="1065" d="M35 456q0 159 28.5 264t79.5 175t117 122l-8 20q-42 104 -73.5 198.5t-31.5 194.5q0 101 43 179t119.5 122.5t175.5 44.5q98 0 178.5 -42.5t128.5 -127.5t48 -215q0 -141 -52.5 -236t-157.5 -183l96 -242q59 149 170 231l139 -217q-116 -93 -194 -303l176 -441h-340 l-39 95q-39 -48 -104.5 -82t-147.5 -34q-164 0 -257.5 127t-93.5 350zM341 413q0 -178 101 -178q41 0 66 30.5t34 63.5l-168 409q-33 -70 -33 -245v-80zM461 1461q0 -26 13 -76.5t61 -174.5q19 20 34 63t15 118q0 77 -18.5 108t-48.5 31q-29 0 -42.5 -21.5t-13.5 -47.5z" />
<glyph unicode="'" horiz-adv-x="438" d="M41 1760h352l-76 -636h-176z" />
<glyph unicode="(" horiz-adv-x="596" d="M49 391v854q0 272 126 421.5t385 156.5v-267q-76 -13 -107.5 -60.5t-31.5 -136.5v-1080q0 -75 40 -120.5t99 -61.5v-285q-158 7 -272.5 81t-176.5 202t-62 296z" />
<glyph unicode=")" horiz-adv-x="596" d="M36 97q59 16 99 61.5t40 120.5v1080q0 89 -31.5 136.5t-107.5 60.5v267q259 -7 385 -156.5t126 -421.5v-854q0 -168 -62 -299t-176.5 -205.5t-272.5 -74.5v285z" />
<glyph unicode="*" horiz-adv-x="926" d="M36 1054l274 117l-274 109l116 200l238 -179l-43 292h232l-35 -286l230 173l116 -200l-275 -109l275 -117l-116 -200l-231 182l36 -295h-232l44 302l-239 -189z" />
<glyph unicode="+" horiz-adv-x="728" d="M40 509v232h208v208h232v-208h208v-232h-208v-208h-232v208h-208z" />
<glyph unicode="," horiz-adv-x="484" d="M55 1v298h374v-289l-102 -245h-211l66 236h-127z" />
<glyph unicode="-" horiz-adv-x="637" d="M60 509v232h516v-232h-516z" />
<glyph unicode="." horiz-adv-x="468" d="M55 1v298h358v-298h-358z" />
<glyph unicode="/" horiz-adv-x="830" d="M29 0l410 1767h364l-411 -1767h-363z" />
<glyph unicode="0" d="M40 469v794q0 248 115.5 380.5t350.5 132.5q236 0 351 -132.5t115 -380.5v-794q0 -235 -121 -360t-345 -125q-223 0 -344.5 125t-121.5 360zM419 428q0 -46 23.5 -83t63.5 -37q41 0 64 37t23 83v869q0 62 -13.5 108.5t-73.5 46.5t-73.5 -46.5t-13.5 -108.5v-869z" />
<glyph unicode="1" horiz-adv-x="677" d="M25 1260v281q53 8 114 34.5t113.5 73t80.5 112.5h283v-1761h-373v1356q-36 -43 -99 -69.5t-119 -26.5z" />
<glyph unicode="2" d="M58 1173q0 190 40 322.5t141.5 202t285.5 69.5q219 0 340.5 -123t121.5 -351q0 -155 -40 -271.5t-106 -212t-145 -190.5q-56 -67 -108.5 -137t-92.5 -150h480v-332h-913v84q0 131 40.5 235.5t104.5 194t135 175.5q69 84 131.5 172.5t102 192t39.5 232.5q0 62 -18.5 106.5 t-76.5 44.5q-88 0 -88 -157v-215h-370q-1 23 -2.5 52t-1.5 56z" />
<glyph unicode="3" d="M39 474v184h361v-185q0 -70 17.5 -118.5t78.5 -48.5q62 0 79 52.5t17 171.5v44q0 91 -30.5 159t-119.5 68q-11 0 -19.5 -0.5t-14.5 -1.5v316q91 0 139 40.5t48 135.5q0 149 -86 149q-56 0 -75.5 -43.5t-19.5 -110.5v-53h-364q-1 12 -1.5 29t-0.5 33q0 242 113 355 t346 113q450 0 450 -468q0 -130 -35 -214.5t-130 -118.5q75 -36 111 -92t47 -139t11 -201q0 -264 -110.5 -407t-366.5 -143q-233 0 -339 123t-106 371z" />
<glyph unicode="4" d="M18 278v275l333 1208h548v-1189h94v-294h-94v-279h-359v279h-522zM332 572h208v887z" />
<glyph unicode="5" d="M46 384v262h366v-151q0 -47 5.5 -91t25.5 -72t63 -28q57 0 75 38.5t18 98.5v346q0 43 -5.5 85t-24.5 70t-61 28q-100 0 -100 -145h-323v936h839v-330h-505v-248q26 32 70.5 56.5t104.5 24.5q120 0 195.5 -46t116 -128t56 -190t15.5 -232q0 -159 -16.5 -286.5t-65 -218.5 t-142 -139.5t-247.5 -48.5q-203 0 -331.5 100.5t-128.5 308.5z" />
<glyph unicode="6" d="M54 549v476q0 183 15.5 323t64.5 235t146 144t259 49q111 0 207 -38.5t155 -115t59 -191.5v-190h-339v36q0 44 -4.5 88t-22.5 73t-61 29q-59 0 -82 -32.5t-23 -93.5v-353q25 47 75 75.5t122 28.5q146 0 224.5 -58.5t108.5 -174.5t30 -290q0 -176 -43 -307.5 t-143.5 -204.5t-272.5 -73q-183 0 -286.5 62.5t-146 188.5t-42.5 314zM428 438q0 -130 88 -130q62 0 74 52.5t12 134.5v142q0 144 -81 144q-93 0 -93 -125v-218z" />
<glyph unicode="7" d="M70 1435v326h888v-192q0 -106 -35 -214t-92 -238q-124 -282 -197.5 -561.5t-90.5 -554.5h-398q16 246 69 460t122 398.5t133 338.5l98 237h-497z" />
<glyph unicode="8" d="M46 525v117q0 134 32 217t118 127q-81 33 -115 110.5t-34 192.5v46q0 234 117.5 340.5t341.5 106.5q230 0 344 -109.5t114 -351.5q0 -127 -30 -213t-119 -124q95 -49 123 -128.5t28 -213.5v-117q0 -260 -106 -402t-354 -142t-354 142t-106 402zM411 484q0 -155 95 -155 q96 0 96 155v161q0 80 -21.5 125t-74.5 45q-55 0 -75 -45t-20 -125v-161zM413 1302q0 -168 93 -168t93 168q0 56 -19.5 106t-73.5 50t-73.5 -50t-19.5 -106z" />
<glyph unicode="9" d="M54 1191q0 176 43 307.5t143.5 204.5t272.5 73q184 0 287 -62.5t145.5 -188t42.5 -314.5v-476q0 -183 -15.5 -323t-64.5 -235t-146 -144t-259 -49q-111 0 -207 38.5t-155 115.5t-59 191v190h339v-36q0 -44 4.5 -88t23 -73t60.5 -29q59 0 82 32.5t23 93.5v353 q-25 -46 -75 -75t-122 -29q-145 0 -224 58.5t-109 174.5t-30 290zM440 1123q0 -144 81 -144q93 0 93 125v218q0 130 -88 130q-62 0 -74 -52.5t-12 -134.5v-142z" />
<glyph unicode=":" horiz-adv-x="495" d="M68 237v298h358v-298h-358zM68 976v298h358v-298h-358z" />
<glyph unicode=";" horiz-adv-x="502" d="M66 236v298h374v-289l-102 -245h-211l66 236h-127zM66 976v298h358v-298h-358z" />
<glyph unicode="&#x3c;" horiz-adv-x="658" d="M35 545v414l570 341v-359l-342 -192l342 -191v-358z" />
<glyph unicode="=" horiz-adv-x="637" d="M61 509v232h514v-232h-514zM61 892v224h514v-224h-514z" />
<glyph unicode="&#x3e;" horiz-adv-x="658" d="M53 200v358l342 191l-342 192v359l570 -341v-414z" />
<glyph unicode="?" horiz-adv-x="1008" d="M48 1125v254q0 202 128.5 299.5t331.5 97.5q178 0 280.5 -64t146 -186.5t43.5 -299.5q0 -173 -56.5 -309t-171.5 -214t-290 -78v-170h-333v416q125 0 214.5 13t147 55t85 127t27.5 228q0 65 -16.5 114t-76.5 49q-43 0 -63 -27.5t-25.5 -70t-5.5 -88.5v-146h-366zM116 1 v298h358v-298h-358z" />
<glyph unicode="@" horiz-adv-x="1770" d="M64 777q0 314 103 537.5t296.5 342.5t464.5 119q258 0 432.5 -107t263 -307.5t88.5 -479.5q0 -292 -89 -448.5t-294 -156.5q-147 0 -217 60.5t-105 153.5q-18 -91 -66.5 -148.5t-130.5 -57.5q-99 0 -166 68.5t-100.5 180t-33.5 240.5q0 144 26.5 263.5t89.5 190.5t172 71 q72 0 119.5 -38.5t84.5 -101.5l39 131h226v-640q0 -78 24 -111.5t65 -33.5q66 0 88 95t22 277q0 205 -49 352.5t-161.5 227t-305.5 79.5q-295 0 -447.5 -197t-152.5 -565q0 -347 159.5 -521.5t424.5 -174.5q107 0 266 21l31 -226q-177 -31 -312 -31q-177 0 -331.5 51.5 t-272.5 163t-184.5 289.5t-66.5 431zM820 783q0 -59 7 -117t25.5 -96t50.5 -38q46 0 62.5 47.5t16.5 102.5v392q-62 0 -97.5 -25t-50 -88t-14.5 -178z" />
<glyph unicode="A" horiz-adv-x="994" d="M30 0l170 1760h597l167 -1760h-333l-25 284h-212l-22 -284h-342zM419 565h160l-77 895h-16z" />
<glyph unicode="B" horiz-adv-x="980" d="M78 0v1760h477q192 0 279.5 -93.5t87.5 -308.5v-77q0 -124 -44.5 -201t-135.5 -101q119 -30 159.5 -140.5t40.5 -269.5q0 -171 -32 -299t-116 -199t-239 -71h-477zM422 312q22 -2 35 -2q137 0 137 130v220q0 75 -22.5 118.5t-84.5 43.5h-65v-510zM422 1097h72q49 0 63 38 t14 91v177q0 85 -75 85h-74v-391z" />
<glyph unicode="C" horiz-adv-x="971" d="M64 436v812q0 256 101.5 392t330.5 136q125 0 222.5 -46t153.5 -137.5t56 -230.5v-304h-350v260q0 79 -20 106.5t-62 27.5q-49 0 -66 -35.5t-17 -94.5v-881q0 -73 21.5 -103t61.5 -30q45 0 63.5 37t18.5 96v317h354v-333q0 -232 -117 -336.5t-327 -104.5 q-191 0 -307.5 119t-116.5 333z" />
<glyph unicode="D" horiz-adv-x="1010" d="M78 0v1760h484q190 0 286 -105.5t96 -308.5v-824q0 -250 -87.5 -386t-306.5 -136h-472zM432 311h61q97 0 97 94v908q0 88 -23.5 113.5t-95.5 25.5h-39v-1141z" />
<glyph unicode="E" horiz-adv-x="843" d="M78 0v1760h704v-340h-346v-343h332v-331h-332v-403h369v-343h-727z" />
<glyph unicode="F" horiz-adv-x="817" d="M78 0v1760h704v-343h-350v-280h332v-339h-332v-798h-354z" />
<glyph unicode="G" horiz-adv-x="993" d="M64 524v759q0 493 432 493q178 0 273 -71.5t131 -208.5t36 -334h-344v156q0 57 -15.5 95.5t-64.5 38.5q-61 0 -80.5 -41t-19.5 -90v-853q0 -71 18.5 -115.5t72.5 -44.5q56 0 74.5 44.5t18.5 117.5v251h-94v304h430v-1025h-141l-60 148q-92 -164 -290 -164 q-377 0 -377 540z" />
<glyph unicode="H" horiz-adv-x="1022" d="M78 0v1760h350v-629h166v629h350v-1760h-350v798h-166v-798h-350z" />
<glyph unicode="I" horiz-adv-x="464" d="M62 0v1760h340v-1760h-340z" />
<glyph unicode="J" horiz-adv-x="955" d="M38 389v441h348v-420q0 -46 18.5 -74t59.5 -28q79 0 79 97v1355h355v-1320q0 -140 -55 -242.5t-152 -158t-223 -55.5q-119 0 -217 46t-155.5 136.5t-57.5 222.5z" />
<glyph unicode="K" horiz-adv-x="967" d="M78 0v1760h348v-705l164 705h354l-197 -806l238 -954h-365l-192 852v-852h-350z" />
<glyph unicode="L" horiz-adv-x="814" d="M78 0v1760h352v-1460h362v-300h-714z" />
<glyph unicode="M" horiz-adv-x="1528" d="M78 0v1760h536l148 -1073l147 1073h541v-1760h-322v1268l-202 -1268h-316l-214 1268v-1268h-318z" />
<glyph unicode="N" horiz-adv-x="1020" d="M78 0v1760h362l162 -843v843h340v-1760h-344l-176 880v-880h-344z" />
<glyph unicode="O" horiz-adv-x="996" d="M64 480v836q0 226 110.5 343t323.5 117t323.5 -117t110.5 -343v-836q0 -241 -111.5 -368.5t-322.5 -127.5t-322.5 127.5t-111.5 368.5zM415 461q0 -82 20 -117.5t66 -35.5q80 0 80 155v859q0 130 -78 130q-88 0 -88 -133v-858z" />
<glyph unicode="P" horiz-adv-x="967" d="M78 0v1760h465q146 0 231.5 -65t122.5 -185t37 -286q0 -160 -31 -278.5t-110.5 -183.5t-225.5 -65h-143v-697h-346zM424 1013h20q98 0 120 55t22 162q0 100 -21.5 154.5t-101.5 54.5h-39v-426z" />
<glyph unicode="Q" horiz-adv-x="1011" d="M54 462v851q0 227 111.5 345t322.5 118t322.5 -118t111.5 -345v-851q0 -218 -98 -343l151 -96l-119 -210l-280 184q-48 -13 -99 -13q-206 0 -314.5 122t-108.5 356zM402 477q0 -35 4.5 -74.5t22.5 -67t59 -27.5q38 0 54.5 28t21 69t4.5 79v823q0 56 -15.5 100.5 t-66.5 44.5q-52 0 -68 -43.5t-16 -100.5v-831z" />
<glyph unicode="R" horiz-adv-x="976" d="M78 0v1760h540q135 0 204 -61.5t92.5 -172t23.5 -259.5q0 -144 -36.5 -230t-137.5 -119q83 -17 116.5 -82.5t33.5 -169.5v-666h-347v689q0 77 -31.5 95.5t-101.5 18.5v-803h-356zM436 1108h85q73 0 73 159q0 103 -16 135t-60 32h-82v-326z" />
<glyph unicode="S" horiz-adv-x="945" d="M42 486v172h348v-220q0 -61 18.5 -95.5t64.5 -34.5q48 0 66.5 28t18.5 92q0 81 -16 135.5t-55.5 104t-109.5 115.5l-158 150q-177 167 -177 382q0 225 104.5 343t302.5 118q242 0 343.5 -129t101.5 -392h-358v121q0 36 -20.5 56t-55.5 20q-42 0 -61.5 -23.5t-19.5 -60.5 t20 -80t79 -99l203 -195q61 -58 112 -122.5t82 -150t31 -208.5q0 -248 -91.5 -388.5t-318.5 -140.5q-241 0 -347.5 120t-106.5 382z" />
<glyph unicode="T" horiz-adv-x="810" d="M20 1422v338h770v-338h-209v-1422h-352v1422h-209z" />
<glyph unicode="U" horiz-adv-x="970" d="M57 471v1289h342v-1275q0 -44 5 -84.5t23 -66.5t58 -26q41 0 59 25.5t22.5 66.5t4.5 85v1275h342v-1289q0 -240 -104 -363.5t-324 -123.5t-324 123.5t-104 363.5z" />
<glyph unicode="V" horiz-adv-x="961" d="M23 1761h335l129 -1198l115 1198h335l-217 -1761h-480z" />
<glyph unicode="W" horiz-adv-x="1458" d="M27 1760h344l97 -1111l99 1111h328l94 -1111l94 1111h348l-192 -1760h-422l-88 847l-84 -847h-429z" />
<glyph unicode="X" horiz-adv-x="991" d="M27 0l189 933l-150 828h344l91 -605l81 605h345l-150 -828l188 -933h-356l-111 688l-114 -688h-357z" />
<glyph unicode="Y" horiz-adv-x="914" d="M10 1760h349l98 -596l98 596h348l-280 -1181v-579h-332v579z" />
<glyph unicode="Z" horiz-adv-x="840" d="M32 0v320l403 1116h-364v324h735v-308l-410 -1128h393v-324h-757z" />
<glyph unicode="[" horiz-adv-x="651" d="M62 -188v2011h554v-281h-202v-1449h202v-281h-554z" />
<glyph unicode="\" horiz-adv-x="830" d="M27 1767h364l410 -1767h-363z" />
<glyph unicode="]" horiz-adv-x="651" d="M35 93h202v1449h-202v281h554v-2011h-554v281z" />
<glyph unicode="^" horiz-adv-x="970" d="M40 432l241 923h408l241 -923h-359l-86 595l-86 -595h-359z" />
<glyph unicode="_" horiz-adv-x="748" d="M48 -130h652v-232h-652v232z" />
<glyph unicode="`" horiz-adv-x="650" d="M61 1647v347l475 -218v-223z" />
<glyph unicode="a" horiz-adv-x="990" d="M41 430q0 137 27 224.5t92.5 143.5t180.5 95l222 76v154q0 121 -79 121q-72 0 -72 -98v-90h-348q-1 8 -1 20.5v28.5q0 224 105.5 317.5t334.5 93.5q120 0 215 -42.5t150.5 -125.5t55.5 -205v-1143h-356v178q-26 -94 -86 -144t-137 -50q-125 0 -190.5 58t-89.5 159 t-24 229zM406 395q0 -133 80 -133q44 0 60 37t16 80v418q-74 -30 -115 -75.5t-41 -133.5v-193z" />
<glyph unicode="b" horiz-adv-x="1027" d="M76 0v1760h364v-420q33 83 91.5 129.5t167.5 46.5q147 0 207.5 -107t60.5 -280v-738q0 -115 -31.5 -207.5t-97 -146t-167.5 -53.5q-88 0 -143 43.5t-88 132.5v-160h-364zM440 457q0 -81 13 -137.5t70 -56.5t69 56t12 138v586q0 83 -12 138.5t-68 55.5q-58 0 -71 -56.5 t-13 -137.5v-586z" />
<glyph unicode="c" horiz-adv-x="1006" d="M60 492v462q0 188 40 313t140 187t278 62q124 0 222.5 -44t155.5 -129t57 -208v-229h-365v210q0 52 -15 87.5t-65 35.5q-88 0 -88 -125v-727q0 -46 20 -84.5t66 -38.5q47 0 65.5 37.5t18.5 87.5v252h363v-262q0 -124 -55.5 -212.5t-152.5 -135.5t-222 -47 q-252 0 -357.5 129t-105.5 379z" />
<glyph unicode="d" horiz-adv-x="1020" d="M62 477v652q0 173 61.5 280t208.5 107q109 0 167.5 -46.5t90.5 -129.5v420h364v-1760h-364v159q-30 -81 -79.5 -128t-143.5 -47q-104 0 -165 38t-91 105t-39.5 157t-9.5 193zM418 452q0 -188 86 -188q51 0 68.5 41t17.5 147v631q0 53 -15.5 104.5t-68.5 51.5 q-58 0 -73 -49t-15 -107v-631z" />
<glyph unicode="e" horiz-adv-x="1000" d="M60 489v603q0 209 120 316.5t330 107.5q432 0 432 -424v-109q0 -198 -4 -266h-520v-290q0 -40 5 -78.5t22.5 -63.5t56.5 -25q56 0 70 48.5t14 126.5v144h356v-85q0 -168 -41.5 -281.5t-140 -171t-268.5 -57.5q-160 0 -255 60t-136 173t-41 272zM416 895h170v202 q0 81 -20 116.5t-60 35.5q-43 0 -66.5 -34t-23.5 -118v-202z" />
<glyph unicode="f" horiz-adv-x="574" d="M40 1161v273h65v102q0 242 242 242q114 0 184 -29v-221q-25 5 -33 5q-31 0 -38 -22.5t-7 -57.5v-19h78v-277h-71v-1157h-355v1161h-65z" />
<glyph unicode="g" horiz-adv-x="1032" d="M46 -136l121 207q131 -78 262 -78q86 0 128 55t42 143v147q-43 -154 -229 -154q-107 0 -173 51t-96 138t-30 194v539q0 121 26 213.5t91 144.5t182 52q99 0 154.5 -50t74.5 -135v169h365v-1286q0 -255 -117.5 -364.5t-370.5 -109.5q-104 0 -178.5 10.5t-133.5 37.5 t-118 76zM433 606q0 -54 13.5 -103t68.5 -49q84 0 84 152v510q0 41 -23.5 84t-64.5 43q-52 0 -65 -38.5t-13 -88.5v-510z" />
<glyph unicode="h" horiz-adv-x="1035" d="M72 0v1760h368v-409q29 84 89 124.5t140 40.5q156 0 227 -98t71 -263v-1155h-362v1132q0 49 -20.5 80t-64.5 31q-37 0 -58.5 -32t-21.5 -76v-1135h-368z" />
<glyph unicode="i" horiz-adv-x="498" d="M70 0v1500h358v-1500h-358zM70 1592v298h358v-298h-358z" />
<glyph unicode="j" horiz-adv-x="538" d="M34 6q18 -5 33 -5q29 0 36 20t7 51v1428h358v-1418q0 -160 -63.5 -251t-218.5 -91q-114 0 -152 26v240zM110 1592v298h358v-298h-358z" />
<glyph unicode="k" horiz-adv-x="1005" d="M72 0v1760h354v-777l172 517h371l-225 -652l286 -848h-381l-223 707v-707h-354z" />
<glyph unicode="l" horiz-adv-x="508" d="M72 0v1760h364v-1760h-364z" />
<glyph unicode="m" horiz-adv-x="1553" d="M72 0v1500h350v-174q24 92 82 141t170 49q90 0 153.5 -41.5t89.5 -109.5q41 74 96.5 112.5t158.5 38.5q125 0 192.5 -53.5t94 -148t26.5 -218.5v-1096h-357v1102q0 145 -74 145q-39 0 -60 -26.5t-29 -65.5t-8 -78v-1077h-357v1102q0 47 -11.5 94t-58.5 47q-40 0 -62 -29 t-30 -71.5t-8 -83.5v-1059h-358z" />
<glyph unicode="n" horiz-adv-x="1021" d="M72 0v1500h358v-191q20 86 74.5 146.5t151.5 60.5q156 0 226.5 -96t70.5 -263v-1157h-353v1120q0 44 -18 81.5t-62 37.5q-41 0 -60.5 -28.5t-24.5 -71t-5 -84.5v-1055h-358z" />
<glyph unicode="o" horiz-adv-x="1017" d="M60 449v602q0 212 119 338.5t329 126.5q211 0 330 -126.5t119 -338.5v-602q0 -465 -449 -465q-448 0 -448 465zM424 375q0 -50 19.5 -82.5t64.5 -32.5t64.5 32.5t19.5 82.5v733q0 131 -84 131t-84 -131v-733z" />
<glyph unicode="p" horiz-adv-x="1027" d="M72 -250v1750h364v-160q33 83 91.5 129.5t167.5 46.5q147 0 207.5 -107t60.5 -280v-738q0 -115 -32.5 -207.5t-102 -146t-181.5 -53.5q-146 0 -211 176v-410h-364zM436 457q0 -81 13.5 -137.5t71.5 -56.5q56 0 67.5 56t11.5 138v586q0 83 -11.5 138.5t-67.5 55.5 q-58 0 -71.5 -56.5t-13.5 -137.5v-586z" />
<glyph unicode="q" horiz-adv-x="1020" d="M62 477v652q0 173 61.5 280t208.5 107q109 0 167.5 -46.5t90.5 -129.5v160h364v-1750h-364v409q-30 -81 -79.5 -128t-143.5 -47q-104 0 -165 38t-91 105t-39.5 157t-9.5 193zM418 452q0 -188 86 -188q47 0 66.5 49t19.5 137v633q0 53 -15.5 104.5t-68.5 51.5 q-58 0 -73 -49t-15 -107v-631z" />
<glyph unicode="r" horiz-adv-x="710" d="M72 0v1500h364v-167q26 87 92 136t166 49v-299q-44 0 -105 -9.5t-107 -26t-46 -36.5v-1147h-364z" />
<glyph unicode="s" horiz-adv-x="972" d="M39 434v119h360v-176q0 -51 20 -80t64 -29q78 0 78 117q0 98 -41 146.5t-100 93.5l-191 147q-90 70 -137 148t-47 217q0 129 61.5 213t163 125t219.5 41q436 0 436 -435v-28h-370v57q0 45 -15.5 87t-60.5 42q-76 0 -76 -80q0 -81 64 -127l222 -162q104 -75 174.5 -178 t70.5 -274q0 -212 -120.5 -323t-330.5 -111q-444 0 -444 450z" />
<glyph unicode="t" horiz-adv-x="625" d="M33 1169v273h101v318h348v-318h101v-273h-101v-851q0 -37 12 -52t46 -15q24 0 43 4v-244q-12 -4 -75 -15.5t-128 -11.5q-145 0 -195.5 61.5t-50.5 188.5v935h-101z" />
<glyph unicode="u" horiz-adv-x="1022" d="M68 383v1117h360v-1075q0 -90 14 -125.5t66 -35.5q56 0 70.5 50t14.5 129v1057h357v-1500h-358v160q-34 -86 -81.5 -131t-149.5 -45q-120 0 -183.5 50t-86.5 139.5t-23 209.5z" />
<glyph unicode="v" horiz-adv-x="944" d="M22 1500h359l86 -1002l97 1002h358l-245 -1500h-414z" />
<glyph unicode="w" horiz-adv-x="1426" d="M48 1500h307l99 -806l87 806h343l103 -806l83 806h308l-183 -1500h-377l-108 851l-94 -851h-387z" />
<glyph unicode="x" horiz-adv-x="940" d="M8 0l275 806l-250 695h365l129 -364l127 364h266l-258 -742l270 -759h-359l-152 422l-142 -422h-271z" />
<glyph unicode="y" horiz-adv-x="944" d="M16 1500h343l100 -1104l118 1104h345l-278 -1578q-15 -85 -57.5 -128.5t-139.5 -43.5h-404v227h172q39 0 39 27q0 14 -3 29z" />
<glyph unicode="z" horiz-adv-x="790" d="M28 0v219l374 997h-356v284h727v-244l-353 -988h356v-268h-748z" />
<glyph unicode="{" horiz-adv-x="696" d="M31 719v197q92 11 115.5 57.5t23.5 146.5v335q0 140 43.5 218.5t150.5 112t297 37.5v-267q-54 -4 -96.5 -17.5t-42.5 -66.5v-375q0 -96 -30.5 -152.5t-80.5 -85t-107 -41.5q57 -13 107 -41.5t80.5 -85t30.5 -153.5v-375q0 -53 42.5 -66.5t96.5 -17.5v-267 q-190 4 -297 37.5t-150.5 112.5t-43.5 218v335q0 100 -23.5 147t-115.5 57z" />
<glyph unicode="|" horiz-adv-x="443" d="M62 -84v2037h319v-2037h-319z" />
<glyph unicode="}" horiz-adv-x="697" d="M40 79q54 4 96.5 17.5t42.5 66.5v375q0 97 30.5 153.5t80.5 85t107 41.5q-57 13 -107 41.5t-80.5 84.5t-30.5 153v375q0 53 -42.5 66.5t-96.5 17.5v267q190 -4 297 -37.5t150.5 -112t43.5 -218.5v-335q0 -100 24 -146.5t115 -57.5v-197q-91 -10 -115 -57t-24 -147v-335 q0 -139 -43.5 -218t-150.5 -112.5t-297 -37.5v267z" />
<glyph unicode="~" horiz-adv-x="1009" d="M50 921q27 66 60 121.5t82.5 88.5t127.5 33q80 0 133.5 -12.5t120.5 -38.5q59 -22 90.5 -31t55.5 -9q30 0 55 18t47 64l182 -60q-27 -73 -58.5 -138.5t-81 -106t-132.5 -40.5q-70 0 -128.5 14t-120.5 38q-61 24 -101.5 36t-68.5 12q-29 0 -54 -16.5t-47 -58.5z" />
<glyph unicode="&#xa1;" horiz-adv-x="464" d="M55 -108l70 1281h218l70 -1281h-358zM55 1353v298h358v-298h-358z" />
<glyph unicode="&#xa2;" horiz-adv-x="986" d="M48 492v462q0 170 32.5 290t114 188t227.5 82v163h173v-166q148 -21 247 -116.5t99 -259.5v-256h-365v237q0 52 -15 87.5t-65 35.5q-88 0 -88 -125v-727q0 -46 20 -84.5t66 -38.5q47 0 65.5 37.5t18.5 87.5v225h363v-235q0 -168 -98 -269t-248 -122v-151h-173v150 q-205 23 -289.5 151t-84.5 354z" />
<glyph unicode="&#xa3;" horiz-adv-x="970" d="M42 0v281q60 36 99 70t58 84t19 133q0 66 -9 105h-162v232h135l-14 59q-7 30 -16.5 78.5t-17 98.5t-7.5 83q0 199 110.5 291.5t306.5 92.5q145 0 230 -59t122 -167.5t37 -256.5h-319q0 110 -14 148.5t-50 38.5q-29 0 -42.5 -18.5t-13.5 -67.5v-23q0 -46 14 -116.5 t42 -181.5h284v-232h-249l11 -132q-5 -89 -45 -152t-97 -98h470v-291h-882z" />
<glyph unicode="&#xa4;" horiz-adv-x="1000" d="M45 659l91 91q-53 98 -53 214q0 117 52 214l-90 90l149 150l87 -88q97 55 218 55t218 -54l87 87l150 -149l-90 -90q54 -97 54 -215t-54 -216l90 -90l-150 -149l-89 88q-92 -52 -216 -52t-216 53l-89 -89zM291 964q0 -93 56.5 -158t151.5 -65t152 66t57 159 q0 95 -56 157.5t-153 62.5q-94 0 -151 -65t-57 -157z" />
<glyph unicode="&#xa5;" horiz-adv-x="948" d="M10 1593h349l98 -629l98 629h348l-242 -876h154v-174h-192v-98h192v-174h-192v-271h-332v271h-200v174h200v98h-200v174h162z" />
<glyph unicode="&#xa6;" horiz-adv-x="455" d="M68 -84v880h319v-880h-319zM68 1043v910h319v-910h-319z" />
<glyph unicode="&#xa7;" horiz-adv-x="920" d="M40 367h335q5 -125 102 -125q38 0 57.5 21t19.5 51t-19 53.5t-68.5 50.5t-142.5 64q-145 59 -204.5 144.5t-59.5 168.5q0 133 138 236q-138 101 -138 244q0 103 56 177.5t148.5 114.5t201.5 40q200 0 304.5 -93t104.5 -293h-305q-5 125 -98 125q-44 0 -67.5 -20 t-23.5 -52q0 -48 47 -81.5t166 -86.5q164 -72 222 -148.5t58 -165.5q0 -131 -138 -235q139 -103 139 -244q0 -103 -56 -177.5t-148 -114.5t-202 -40q-205 0 -317 91t-112 295zM347 813q0 -41 48.5 -71.5t151.5 -62.5q29 28 40.5 53.5t11.5 47.5q0 35 -50.5 73t-151.5 64 q-50 -59 -50 -104z" />
<glyph unicode="&#xa8;" horiz-adv-x="976" d="M66 1599v298h358v-298h-358zM550 1599v298h358v-298h-358z" />
<glyph unicode="&#xa9;" horiz-adv-x="1382" d="M34 862q0 140 49.5 259.5t139 209t209 139t259.5 49.5t259.5 -49.5t209 -139t139 -209t49.5 -259.5t-49.5 -259.5t-139 -209t-209 -139t-259.5 -49.5t-259.5 49.5t-209 139t-139 209t-49.5 259.5zM193 862q0 -145 64.5 -265t177 -191.5t256.5 -71.5q145 0 257 71.5 t176.5 191.5t64.5 265q0 146 -64.5 265.5t-176.5 191t-257 71.5q-144 0 -256.5 -71.5t-177 -191t-64.5 -265.5zM455 648v401q0 126 55 191t179 65q101 0 168 -49.5t67 -150.5v-153h-189v101q0 77 -46 77q-28 0 -36 -17.5t-8 -46.5v-409q0 -22 11.5 -43.5t32.5 -21.5 q46 0 46 65v149h193v-163q0 -219 -243 -219q-104 0 -167 59t-63 165z" />
<glyph unicode="&#xaa;" horiz-adv-x="803" d="M44 1134q0 96 16.5 162.5t61 113t126 84.5t211.5 77v109q0 42 -9.5 69t-51.5 27q-59 0 -59 -65v-80h-276q-1 7 -1 16.5v22.5q0 177 84.5 252t269.5 75q143 0 236 -77t93 -220v-907h-282v124q-13 -49 -64 -93.5t-113 -44.5q-99 0 -151 46.5t-71.5 127t-19.5 181.5z M334 1106q0 -105 64 -105q35 0 47.5 29.5t12.5 63.5v313q-59 -23 -91.5 -57.5t-32.5 -104.5v-139z" />
<glyph unicode="&#xab;" horiz-adv-x="1184" d="M38 545v414l510 271v-359l-312 -122l312 -131v-358zM616 545v414l510 271v-359l-312 -122l312 -131v-358z" />
<glyph unicode="&#xac;" horiz-adv-x="827" d="M37 801v178h729v-540h-311v362h-418z" />
<glyph unicode="&#xad;" horiz-adv-x="600" d="M60 509v232h516v-232h-516z" />
<glyph unicode="&#xae;" horiz-adv-x="1382" d="M34 862q0 140 49.5 259.5t139 209t209 139t259.5 49.5t259.5 -49.5t209 -139t139 -209t49.5 -259.5t-49.5 -259.5t-139 -209t-209 -139t-259.5 -49.5t-259.5 49.5t-209 139t-139 209t-49.5 259.5zM193 862q0 -145 64.5 -265t177 -191.5t256.5 -71.5q145 0 257 71.5 t176.5 191.5t64.5 265q0 146 -64.5 265.5t-176.5 191t-257 71.5q-144 0 -256.5 -71.5t-177 -191t-64.5 -265.5zM469 430v852h289q109 0 140 -65.5t31 -173.5q0 -69 -19.5 -111t-73.5 -59q79 -15 79 -122v-321h-184v332q0 38 -17 47t-55 9v-388h-190zM660 965h48q37 0 37 78 q0 53 -16 67t-69 14v-159z" />
<glyph unicode="&#xaf;" horiz-adv-x="730" d="M40 1619v153h650v-153h-650z" />
<glyph unicode="&#xb0;" horiz-adv-x="796" d="M44 1269q0 158 96.5 248t256.5 90q161 0 257.5 -90t96.5 -248t-96.5 -248t-257.5 -90q-160 0 -256.5 89.5t-96.5 248.5zM256 1269q0 -65 37.5 -111t104.5 -46t104.5 46t37.5 111t-37.5 111t-104.5 46t-104.5 -46t-37.5 -111z" />
<glyph unicode="&#xb1;" horiz-adv-x="734" d="M46 622v232h208v208h232v-208h208v-232h-208v-208h-232v208h-208zM87 -1v232h516v-232h-516z" />
<glyph unicode="&#xb2;" horiz-adv-x="629" d="M60 792v55q0 116 51.5 198t113.5 158q62 74 111.5 156t49.5 195q0 36 -11 62t-45 26q-52 0 -52 -91v-127h-218v64q0 167 55 257.5t218 90.5q128 0 199.5 -72t71.5 -205q0 -91 -25 -161t-64 -126.5t-82 -110.5q-33 -40 -63.5 -83t-54.5 -91h282v-195h-537z" />
<glyph unicode="&#xb3;" horiz-adv-x="632" d="M39 1073v108h212v-109q0 -41 10.5 -69.5t47.5 -28.5q32 0 43.5 27.5t11.5 104.5v25q0 54 -18 93.5t-70 39.5h-20v186q53 0 81.5 23.5t28.5 79.5q0 93 -51 93q-30 0 -42.5 -21t-12.5 -71v-35h-215v37q0 146 66 213t203 67q265 0 265 -280q0 -76 -20.5 -126t-76.5 -70 q66 -32 82.5 -91t16.5 -163q0 -156 -65 -240t-215 -84q-137 0 -199.5 72.5t-62.5 218.5z" />
<glyph unicode="&#xb4;" horiz-adv-x="650" d="M91 1553v223l475 218v-347z" />
<glyph unicode="&#xb5;" horiz-adv-x="1003" d="M68 -186v1686h360v-1075q0 -90 14 -125.5t66 -35.5q56 0 70.5 50t14.5 129v1057h357v-1500h-358v160q-29 -71 -65.5 -114t-109.5 -57v-175h-349z" />
<glyph unicode="&#xb6;" horiz-adv-x="1019" d="M31 1210q0 153 73.5 236t198.5 115t279 32h375v-1593h-239v1287h-94v-1287h-246v797q-179 20 -263 118.5t-84 294.5z" />
<glyph unicode="&#xb7;" horiz-adv-x="480" d="M81 723v298h318v-298h-318z" />
<glyph unicode="&#xb8;" horiz-adv-x="576" d="M40 -368q31 -10 61 -16.5t57 -6.5q50 0 83.5 26.5t33.5 91.5q0 56 -27.5 128t-76.5 145h161q97 -85 150.5 -189.5t53.5 -197.5q0 -103 -71 -173.5t-227 -70.5q-103 0 -198 40v223z" />
<glyph unicode="&#xb9;" horiz-adv-x="434" d="M24 1535v165q47 7 101.5 39.5t79.5 90.5h167v-1034h-220v796q-21 -25 -58 -41t-70 -16z" />
<glyph unicode="&#xba;" horiz-adv-x="813" d="M50 1149v478q0 166 94 268t261 102q168 0 262.5 -100.5t94.5 -269.5v-478q0 -181 -88.5 -275.5t-267.5 -94.5q-356 0 -356 370zM339 1091q0 -91 67 -91q66 0 66 91v581q0 104 -66 104q-67 0 -67 -104v-581z" />
<glyph unicode="&#xbb;" horiz-adv-x="1184" d="M58 260v358l312 131l-312 122v359l510 -271v-414zM635 260v358l312 131l-312 122v359l510 -271v-414z" />
<glyph unicode="&#xbc;" horiz-adv-x="1667" d="M145 1465v165q47 7 101.5 39.5t79.5 90.5h167v-1034h-220v796q-21 -25 -58 -41t-70 -16zM419 -16l579 1792h284l-680 -1792h-183zM956 169v162l196 703h322v-692h56v-173h-56v-169h-211v169h-307zM1141 342h122v515z" />
<glyph unicode="&#xbd;" horiz-adv-x="1487" d="M24 1466v165q47 7 101.5 39.5t79.5 90.5h167v-1034h-220v796q-21 -25 -58 -41t-70 -16zM273 -6l579 1792h284l-680 -1792h-183zM918 0v55q0 116 51.5 198t113.5 158q62 74 111.5 156t49.5 195q0 36 -11 62t-45 26q-52 0 -52 -91v-127h-218v64q0 167 55 257.5t218 90.5 q128 0 199.5 -72t71.5 -205q0 -91 -25 -161t-64 -126.5t-82 -110.5q-33 -40 -63.5 -83t-54.5 -91h282v-195h-537z" />
<glyph unicode="&#xbe;" horiz-adv-x="1750" d="M147 1003v108h212v-109q0 -41 10.5 -69.5t47.5 -28.5q32 0 43.5 27.5t11.5 104.5v25q0 54 -18 93.5t-70 39.5h-20v186q53 0 81.5 23.5t28.5 79.5q0 93 -51 93q-30 0 -42.5 -21t-12.5 -71v-35h-215v37q0 146 66 213t203 67q265 0 265 -280q0 -76 -20.5 -126t-76.5 -70 q66 -32 82.5 -91t16.5 -163q0 -156 -65 -240t-215 -84q-137 0 -199.5 72.5t-62.5 218.5zM517 -16l579 1792h284l-680 -1792h-183zM1039 169v162l196 703h322v-692h56v-173h-56v-169h-211v169h-307zM1224 342h122v515z" />
<glyph unicode="&#xbf;" horiz-adv-x="1009" d="M38 421q0 173 56.5 309t171.5 214t290 78v170h333v-416q-125 0 -214.5 -13t-147 -55t-85 -127t-27.5 -228q0 -65 16.5 -114t76.5 -49q44 0 63.5 27.5t25 70t5.5 88.5v146h366v-254q0 -202 -128.5 -299.5t-331.5 -97.5q-177 0 -280 64t-146.5 186.5t-43.5 299.5zM542 1348 v298h358v-298h-358z" />
<glyph unicode="&#xc0;" horiz-adv-x="994" d="M30 0l170 1760h597l167 -1760h-333l-25 284h-212l-22 -284h-342zM258 1907v347l475 -218v-223zM419 565h160l-77 895h-16z" />
<glyph unicode="&#xc1;" horiz-adv-x="994" d="M30 0l170 1760h597l167 -1760h-333l-25 284h-212l-22 -284h-342zM258 1813v223l475 218v-347zM419 565h160l-77 895h-16z" />
<glyph unicode="&#xc2;" horiz-adv-x="994" d="M30 0l170 1760h597l167 -1760h-333l-25 284h-212l-22 -284h-342zM51 1851l241 403h408l241 -403h-359l-86 285l-86 -285h-359zM419 565h160l-77 895h-16z" />
<glyph unicode="&#xc3;" horiz-adv-x="994" d="M30 0l170 1760h597l167 -1760h-333l-25 284h-212l-22 -284h-342zM83 1972q25 61 54.5 111.5t75.5 81t117 30.5t128.5 -21t105 -42t86.5 -21q27 0 50 17t43 58l166 -54q-24 -67 -53 -127t-74.5 -97t-120.5 -37q-74 0 -135.5 23t-111.5 45.5t-91 22.5q-26 0 -49 -15 t-43 -53zM419 565h160l-77 895h-16z" />
<glyph unicode="&#xc4;" horiz-adv-x="994" d="M30 0l170 1760h597l167 -1760h-333l-25 284h-212l-22 -284h-342zM68 1859v298h358v-298h-358zM419 565h160l-77 895h-16zM552 1859v298h358v-298h-358z" />
<glyph unicode="&#xc5;" horiz-adv-x="994" d="M30 0l170 1760h597l167 -1760h-333l-25 284h-212l-22 -284h-342zM142 2178q0 158 96.5 248t256.5 90q161 0 257.5 -90t96.5 -248t-96.5 -248t-257.5 -90q-160 0 -256.5 89.5t-96.5 248.5zM354 2178q0 -65 37.5 -111t104.5 -46t104.5 46t37.5 111t-37.5 111t-104.5 46 t-104.5 -46t-37.5 -111zM419 565h160l-77 895h-16z" />
<glyph unicode="&#xc6;" horiz-adv-x="1311" d="M-44 0l321 1760h972v-309h-286v-402h272v-299h-272v-439h309v-311h-649v479h-207l-79 -479h-381zM462 769h156v692h-57z" />
<glyph unicode="&#xc7;" horiz-adv-x="971" d="M64 436v812q0 256 101.5 392t330.5 136q125 0 222.5 -46t153.5 -137.5t56 -230.5v-304h-350v260q0 79 -20 106.5t-62 27.5q-49 0 -66 -35.5t-17 -94.5v-881q0 -73 21.5 -103t61.5 -30q45 0 63.5 37t18.5 96v317h354v-333q0 -232 -117 -336.5t-327 -104.5 q-191 0 -307.5 119t-116.5 333zM265 -368q31 -10 61 -16.5t57 -6.5q50 0 83.5 26.5t33.5 91.5q0 56 -27.5 128t-76.5 145h161q97 -85 150.5 -189.5t53.5 -197.5q0 -103 -71 -173.5t-227 -70.5q-103 0 -198 40v223z" />
<glyph unicode="&#xc8;" horiz-adv-x="843" d="M78 0v1760h704v-340h-346v-343h332v-331h-332v-403h369v-343h-727zM206 1907v347l475 -218v-223z" />
<glyph unicode="&#xc9;" horiz-adv-x="843" d="M78 0v1760h704v-340h-346v-343h332v-331h-332v-403h369v-343h-727zM206 1813v223l475 218v-347z" />
<glyph unicode="&#xca;" horiz-adv-x="843" d="M-1 1851l241 403h408l241 -403h-359l-86 285l-86 -285h-359zM78 0v1760h704v-340h-346v-343h332v-331h-332v-403h369v-343h-727z" />
<glyph unicode="&#xcb;" horiz-adv-x="843" d="M16 1859v298h358v-298h-358zM78 0v1760h704v-340h-346v-343h332v-331h-332v-403h369v-343h-727zM500 1859v298h358v-298h-358z" />
<glyph unicode="&#xcc;" horiz-adv-x="464" d="M-6 1907v347l475 -218v-223zM62 0v1760h340v-1760h-340z" />
<glyph unicode="&#xcd;" horiz-adv-x="464" d="M-6 1813v223l475 218v-347zM62 0v1760h340v-1760h-340z" />
<glyph unicode="&#xce;" horiz-adv-x="464" d="M-213 1851l241 403h408l241 -403h-359l-86 285l-86 -285h-359zM62 0v1760h340v-1760h-340z" />
<glyph unicode="&#xcf;" horiz-adv-x="464" d="M-196 1859v298h358v-298h-358zM62 0v1760h340v-1760h-340zM288 1859v298h358v-298h-358z" />
<glyph unicode="&#xd0;" horiz-adv-x="1010" d="M3 804v232h75v724h484q190 0 286 -105.5t96 -308.5v-824q0 -250 -87.5 -386t-306.5 -136h-472v804h-75zM432 311h61q97 0 97 94v908q0 88 -23.5 113.5t-95.5 25.5h-39v-416h87v-232h-87v-493z" />
<glyph unicode="&#xd1;" horiz-adv-x="1020" d="M78 0v1760h362l162 -843v843h340v-1760h-344l-176 880v-880h-344zM118 1972q25 61 54.5 111.5t75.5 81t117 30.5t128.5 -21t105 -42t86.5 -21q27 0 50 17t43 58l166 -54q-24 -67 -53 -127t-74.5 -97t-120.5 -37q-74 0 -135.5 23t-111.5 45.5t-91 22.5q-26 0 -49 -15 t-43 -53z" />
<glyph unicode="&#xd2;" horiz-adv-x="996" d="M64 480v836q0 226 110.5 343t323.5 117t323.5 -117t110.5 -343v-836q0 -241 -111.5 -368.5t-322.5 -127.5t-322.5 127.5t-111.5 368.5zM261 1907v347l475 -218v-223zM415 461q0 -82 20 -117.5t66 -35.5q80 0 80 155v859q0 130 -78 130q-88 0 -88 -133v-858z" />
<glyph unicode="&#xd3;" horiz-adv-x="996" d="M64 480v836q0 226 110.5 343t323.5 117t323.5 -117t110.5 -343v-836q0 -241 -111.5 -368.5t-322.5 -127.5t-322.5 127.5t-111.5 368.5zM261 1813v223l475 218v-347zM415 461q0 -82 20 -117.5t66 -35.5q80 0 80 155v859q0 130 -78 130q-88 0 -88 -133v-858z" />
<glyph unicode="&#xd4;" horiz-adv-x="996" d="M54 1851l241 403h408l241 -403h-359l-86 285l-86 -285h-359zM64 480v836q0 226 110.5 343t323.5 117t323.5 -117t110.5 -343v-836q0 -241 -111.5 -368.5t-322.5 -127.5t-322.5 127.5t-111.5 368.5zM415 461q0 -82 20 -117.5t66 -35.5q80 0 80 155v859q0 130 -78 130 q-88 0 -88 -133v-858z" />
<glyph unicode="&#xd5;" horiz-adv-x="996" d="M64 480v836q0 226 110.5 343t323.5 117t323.5 -117t110.5 -343v-836q0 -241 -111.5 -368.5t-322.5 -127.5t-322.5 127.5t-111.5 368.5zM86 1972q25 61 54.5 111.5t75.5 81t117 30.5t128.5 -21t105 -42t86.5 -21q27 0 50 17t43 58l166 -54q-24 -67 -53 -127t-74.5 -97 t-120.5 -37q-74 0 -135.5 23t-111.5 45.5t-91 22.5q-26 0 -49 -15t-43 -53zM415 461q0 -82 20 -117.5t66 -35.5q80 0 80 155v859q0 130 -78 130q-88 0 -88 -133v-858z" />
<glyph unicode="&#xd6;" horiz-adv-x="996" d="M64 480v836q0 226 110.5 343t323.5 117t323.5 -117t110.5 -343v-836q0 -241 -111.5 -368.5t-322.5 -127.5t-322.5 127.5t-111.5 368.5zM71 1859v298h358v-298h-358zM415 461q0 -82 20 -117.5t66 -35.5q80 0 80 155v859q0 130 -78 130q-88 0 -88 -133v-858zM555 1859v298 h358v-298h-358z" />
<glyph unicode="&#xd7;" horiz-adv-x="710" d="M44 478l147 147l-147 147l164 164l147 -147l147 147l164 -164l-147 -147l147 -147l-164 -164l-147 147l-147 -147z" />
<glyph unicode="&#xd8;" horiz-adv-x="996" d="M64 480v836q0 227 111.5 343.5t322.5 116.5q87 0 158 -20l63 244h140l-78 -305q151 -114 151 -379v-836q0 -235 -109 -365.5t-325 -130.5q-110 0 -194 35l-53 -205h-140l74 287q-121 128 -121 379zM415 461q0 -69 16 -111t70 -42q50 0 65 45.5t15 109.5v859 q0 47 -13 88.5t-65 41.5q-51 0 -69.5 -38.5t-18.5 -94.5v-858z" />
<glyph unicode="&#xd9;" horiz-adv-x="970" d="M57 471v1289h342v-1275q0 -44 5 -84.5t23 -66.5t58 -26q41 0 59 25.5t22.5 66.5t4.5 85v1275h342v-1289q0 -240 -104 -363.5t-324 -123.5t-324 123.5t-104 363.5zM247 1907v347l475 -218v-223z" />
<glyph unicode="&#xda;" horiz-adv-x="970" d="M57 471v1289h342v-1275q0 -44 5 -84.5t23 -66.5t58 -26q41 0 59 25.5t22.5 66.5t4.5 85v1275h342v-1289q0 -240 -104 -363.5t-324 -123.5t-324 123.5t-104 363.5zM247 1813v223l475 218v-347z" />
<glyph unicode="&#xdb;" horiz-adv-x="970" d="M40 1851l241 403h408l241 -403h-359l-86 285l-86 -285h-359zM57 471v1289h342v-1275q0 -44 5 -84.5t23 -66.5t58 -26q41 0 59 25.5t22.5 66.5t4.5 85v1275h342v-1289q0 -240 -104 -363.5t-324 -123.5t-324 123.5t-104 363.5z" />
<glyph unicode="&#xdc;" horiz-adv-x="970" d="M57 471v1289h342v-1275q0 -44 5 -84.5t23 -66.5t58 -26q41 0 59 25.5t22.5 66.5t4.5 85v1275h342v-1289q0 -240 -104 -363.5t-324 -123.5t-324 123.5t-104 363.5zM57 1859v298h358v-298h-358zM541 1859v298h358v-298h-358z" />
<glyph unicode="&#xdd;" horiz-adv-x="914" d="M10 1760h349l98 -596l98 596h348l-280 -1181v-579h-332v579zM218 1813v223l475 218v-347z" />
<glyph unicode="&#xde;" horiz-adv-x="947" d="M62 0v1760h345v-244h120q154 0 239 -69.5t118.5 -192t33.5 -281.5q0 -153 -28 -275t-107 -193t-232 -71h-143v-434h-346zM408 721h20q82 0 112 49t30 197q0 77 -7 135.5t-32.5 91t-83.5 32.5h-39v-505z" />
<glyph unicode="&#xdf;" horiz-adv-x="1007" d="M58 0v1412q0 364 425 364q194 0 310 -84t116 -280v-117q0 -105 -34.5 -177t-115.5 -98q127 -30 168.5 -148.5t41.5 -312.5q0 -149 -34 -276.5t-118.5 -205t-234.5 -77.5h-104v281q143 0 143 118v332q0 81 -32.5 114t-114.5 33v248q53 0 68.5 34t15.5 85v208q0 76 -75 76 t-75 -76v-1453h-350z" />
<glyph unicode="&#xe0;" horiz-adv-x="990" d="M41 430q0 137 27 224.5t92.5 143.5t180.5 95l222 76v154q0 121 -79 121q-72 0 -72 -98v-90h-348q-1 8 -1 20.5v28.5q0 224 105.5 317.5t334.5 93.5q120 0 215 -42.5t150.5 -125.5t55.5 -205v-1143h-356v178q-26 -94 -86 -144t-137 -50q-125 0 -190.5 58t-89.5 159 t-24 229zM265 1663v347l475 -218v-223zM406 395q0 -133 80 -133q44 0 60 37t16 80v418q-74 -30 -115 -75.5t-41 -133.5v-193z" />
<glyph unicode="&#xe1;" horiz-adv-x="990" d="M41 430q0 137 27 224.5t92.5 143.5t180.5 95l222 76v154q0 121 -79 121q-72 0 -72 -98v-90h-348q-1 8 -1 20.5v28.5q0 224 105.5 317.5t334.5 93.5q120 0 215 -42.5t150.5 -125.5t55.5 -205v-1143h-356v178q-26 -94 -86 -144t-137 -50q-125 0 -190.5 58t-89.5 159 t-24 229zM265 1569v223l475 218v-347zM406 395q0 -133 80 -133q44 0 60 37t16 80v418q-74 -30 -115 -75.5t-41 -133.5v-193z" />
<glyph unicode="&#xe2;" horiz-adv-x="990" d="M41 430q0 137 27 224.5t92.5 143.5t180.5 95l222 76v154q0 121 -79 121q-72 0 -72 -98v-90h-348q-1 8 -1 20.5v28.5q0 224 105.5 317.5t334.5 93.5q120 0 215 -42.5t150.5 -125.5t55.5 -205v-1143h-356v178q-26 -94 -86 -144t-137 -50q-125 0 -190.5 58t-89.5 159 t-24 229zM58 1607l241 403h408l241 -403h-359l-86 285l-86 -285h-359zM406 395q0 -133 80 -133q44 0 60 37t16 80v418q-74 -30 -115 -75.5t-41 -133.5v-193z" />
<glyph unicode="&#xe3;" horiz-adv-x="990" d="M41 430q0 137 27 224.5t92.5 143.5t180.5 95l222 76v154q0 121 -79 121q-72 0 -72 -98v-90h-348q-1 8 -1 20.5v28.5q0 224 105.5 317.5t334.5 93.5q120 0 215 -42.5t150.5 -125.5t55.5 -205v-1143h-356v178q-26 -94 -86 -144t-137 -50q-125 0 -190.5 58t-89.5 159 t-24 229zM90 1728q25 61 54.5 111.5t75.5 81t117 30.5q74 0 131 -21t103.5 -42t85.5 -21q27 0 50 17t43 58l166 -54q-24 -67 -53 -127t-74.5 -97t-120.5 -37q-77 0 -136 23t-107.5 45.5t-94.5 22.5q-26 0 -49 -15t-43 -53zM406 395q0 -133 80 -133q44 0 60 37t16 80v418 q-74 -30 -115 -75.5t-41 -133.5v-193z" />
<glyph unicode="&#xe4;" horiz-adv-x="990" d="M41 430q0 137 27 224.5t92.5 143.5t180.5 95l222 76v154q0 121 -79 121q-72 0 -72 -98v-90h-348q-1 8 -1 20.5v28.5q0 224 105.5 317.5t334.5 93.5q120 0 215 -42.5t150.5 -125.5t55.5 -205v-1143h-356v178q-26 -94 -86 -144t-137 -50q-125 0 -190.5 58t-89.5 159 t-24 229zM75 1615v298h358v-298h-358zM406 395q0 -133 80 -133q44 0 60 37t16 80v418q-74 -30 -115 -75.5t-41 -133.5v-193zM559 1615v298h358v-298h-358z" />
<glyph unicode="&#xe5;" horiz-adv-x="990" d="M41 430q0 137 27 224.5t92.5 143.5t180.5 95l222 76v154q0 121 -79 121q-72 0 -72 -98v-90h-348q-1 8 -1 20.5v28.5q0 224 105.5 317.5t334.5 93.5q120 0 215 -42.5t150.5 -125.5t55.5 -205v-1143h-356v178q-26 -94 -86 -144t-137 -50q-125 0 -190.5 58t-89.5 159 t-24 229zM149 1934q0 158 96.5 248t256.5 90q161 0 257.5 -90t96.5 -248t-96.5 -248t-257.5 -90q-160 0 -256.5 89.5t-96.5 248.5zM361 1934q0 -65 37.5 -111t104.5 -46t104.5 46t37.5 111t-37.5 111t-104.5 46t-104.5 -46t-37.5 -111zM406 395q0 -133 80 -133q44 0 60 37 t16 80v418q-74 -30 -115 -75.5t-41 -133.5v-193z" />
<glyph unicode="&#xe6;" horiz-adv-x="1497" d="M38 430q0 165 39 257.5t115.5 143t187.5 88.5l180 61v103q0 82 -18 119t-59 37q-74 0 -74 -82v-101h-348q-1 8 -1 20.5v28.5q0 224 98.5 318.5t282.5 94.5q127 0 196 -30.5t110 -91.5q40 61 110.5 91.5t186.5 30.5q194 0 298 -106.5t104 -319.5v-109q0 -101 -1 -171 t-3 -108h-521v-210q0 -124 21 -179t70 -55q44 0 61 41t17 152v126h356v-85q0 -161 -35.5 -275.5t-124.5 -175.5t-250 -61q-105 0 -181 47.5t-107 118.5q-34 -73 -110.5 -119.5t-188.5 -46.5q-200 0 -305.5 120.5t-105.5 327.5zM403 395q0 -133 80 -133q44 0 60 37t16 80v395 q-74 -30 -115 -73t-41 -131v-175zM921 931h169v156q0 162 -80 162q-67 0 -78 -55.5t-11 -141.5v-121z" />
<glyph unicode="&#xe7;" horiz-adv-x="1006" d="M60 492v462q0 188 40 313t140 187t278 62q124 0 222.5 -44t155.5 -129t57 -208v-229h-365v210q0 52 -15 87.5t-65 35.5q-88 0 -88 -125v-727q0 -46 20 -84.5t66 -38.5q47 0 65.5 37.5t18.5 87.5v252h363v-262q0 -124 -55.5 -212.5t-152.5 -135.5t-222 -47 q-252 0 -357.5 129t-105.5 379zM290 -368q31 -10 61 -16.5t57 -6.5q50 0 83.5 26.5t33.5 91.5q0 56 -27.5 128t-76.5 145h161q97 -85 150.5 -189.5t53.5 -197.5q0 -103 -71 -173.5t-227 -70.5q-103 0 -198 40v223z" />
<glyph unicode="&#xe8;" horiz-adv-x="1000" d="M60 489v603q0 209 120 316.5t330 107.5q432 0 432 -424v-109q0 -198 -4 -266h-520v-290q0 -40 5 -78.5t22.5 -63.5t56.5 -25q56 0 70 48.5t14 126.5v144h356v-85q0 -168 -41.5 -281.5t-140 -171t-268.5 -57.5q-160 0 -255 60t-136 173t-41 272zM272 1647v347l475 -218 v-223zM416 895h170v202q0 81 -20 116.5t-60 35.5q-43 0 -66.5 -34t-23.5 -118v-202z" />
<glyph unicode="&#xe9;" horiz-adv-x="1000" d="M60 489v603q0 209 120 316.5t330 107.5q432 0 432 -424v-109q0 -198 -4 -266h-520v-290q0 -40 5 -78.5t22.5 -63.5t56.5 -25q56 0 70 48.5t14 126.5v144h356v-85q0 -168 -41.5 -281.5t-140 -171t-268.5 -57.5q-160 0 -255 60t-136 173t-41 272zM273 1553v223l475 218 v-347zM416 895h170v202q0 81 -20 116.5t-60 35.5q-43 0 -66.5 -34t-23.5 -118v-202z" />
<glyph unicode="&#xea;" horiz-adv-x="1000" d="M60 489v603q0 209 120 316.5t330 107.5q432 0 432 -424v-109q0 -198 -4 -266h-520v-290q0 -40 5 -78.5t22.5 -63.5t56.5 -25q56 0 70 48.5t14 126.5v144h356v-85q0 -168 -41.5 -281.5t-140 -171t-268.5 -57.5q-160 0 -255 60t-136 173t-41 272zM65 1591l241 403h408 l241 -403h-359l-86 285l-86 -285h-359zM416 895h170v202q0 81 -20 116.5t-60 35.5q-43 0 -66.5 -34t-23.5 -118v-202z" />
<glyph unicode="&#xeb;" horiz-adv-x="1000" d="M60 489v603q0 209 120 316.5t330 107.5q432 0 432 -424v-109q0 -198 -4 -266h-520v-290q0 -40 5 -78.5t22.5 -63.5t56.5 -25q56 0 70 48.5t14 126.5v144h356v-85q0 -168 -41.5 -281.5t-140 -171t-268.5 -57.5q-160 0 -255 60t-136 173t-41 272zM82 1599v298h358v-298 h-358zM416 895h170v202q0 81 -20 116.5t-60 35.5q-43 0 -66.5 -34t-23.5 -118v-202zM566 1599v298h358v-298h-358z" />
<glyph unicode="&#xec;" horiz-adv-x="482" d="M3 1647v347l475 -218v-223zM62 0v1500h358v-1500h-358z" />
<glyph unicode="&#xed;" horiz-adv-x="482" d="M4 1553v223l475 218v-347zM62 0v1500h358v-1500h-358z" />
<glyph unicode="&#xee;" horiz-adv-x="482" d="M-204 1591l241 403h408l241 -403h-359l-86 285l-86 -285h-359zM62 0v1500h358v-1500h-358z" />
<glyph unicode="&#xef;" horiz-adv-x="482" d="M-187 1599v298h358v-298h-358zM62 0v1500h358v-1500h-358zM297 1599v298h358v-298h-358z" />
<glyph unicode="&#xf0;" horiz-adv-x="1031" d="M49 589q0 260 98.5 386.5t316.5 126.5q69 0 137 -25q-36 90 -100 182l-177 -115l-83 129l153 99q-165 143 -310 174l94 228q249 -23 481 -229l171 111l83 -129l-145 -95q107 -147 164.5 -297.5t57.5 -335.5v-261q0 -188 -44 -311t-149 -183t-289 -60q-172 0 -272.5 71.5 t-143.5 207t-43 326.5zM435 482q0 -88 13 -145.5t80 -57.5q95 0 95 141v281q0 135 -101 135q-87 0 -87 -156v-198z" />
<glyph unicode="&#xf1;" horiz-adv-x="1021" d="M72 0v1500h358v-191q20 86 74.5 146.5t151.5 60.5q156 0 226.5 -96t70.5 -263v-1157h-353v1120q0 44 -18 81.5t-62 37.5q-41 0 -60.5 -28.5t-24.5 -71t-5 -84.5v-1055h-358zM100 1712q25 61 54.5 111.5t75.5 81t117 30.5q74 0 131 -21t103.5 -42t85.5 -21q27 0 50 17 t43 58l166 -54q-24 -67 -53 -127t-74.5 -97t-120.5 -37q-77 0 -136 23t-107.5 45.5t-94.5 22.5q-26 0 -49 -15t-43 -53z" />
<glyph unicode="&#xf2;" horiz-adv-x="1017" d="M60 449v602q0 212 119 338.5t329 126.5q211 0 330 -126.5t119 -338.5v-602q0 -465 -449 -465q-448 0 -448 465zM270 1663v347l475 -218v-223zM424 375q0 -50 19.5 -82.5t64.5 -32.5t64.5 32.5t19.5 82.5v733q0 131 -84 131t-84 -131v-733z" />
<glyph unicode="&#xf3;" horiz-adv-x="1017" d="M60 449v602q0 212 119 338.5t329 126.5q211 0 330 -126.5t119 -338.5v-602q0 -465 -449 -465q-448 0 -448 465zM271 1569v223l475 218v-347zM424 375q0 -50 19.5 -82.5t64.5 -32.5t64.5 32.5t19.5 82.5v733q0 131 -84 131t-84 -131v-733z" />
<glyph unicode="&#xf4;" horiz-adv-x="1017" d="M60 449v602q0 212 119 338.5t329 126.5q211 0 330 -126.5t119 -338.5v-602q0 -465 -449 -465q-448 0 -448 465zM63 1607l241 403h408l241 -403h-359l-86 285l-86 -285h-359zM424 375q0 -50 19.5 -82.5t64.5 -32.5t64.5 32.5t19.5 82.5v733q0 131 -84 131t-84 -131v-733z " />
<glyph unicode="&#xf5;" horiz-adv-x="1017" d="M60 449v602q0 212 119 338.5t329 126.5q211 0 330 -126.5t119 -338.5v-602q0 -465 -449 -465q-448 0 -448 465zM95 1728q25 61 54.5 111.5t75.5 81t117 30.5q74 0 131 -21t103.5 -42t85.5 -21q27 0 50 17t43 58l166 -54q-24 -67 -53 -127t-74.5 -97t-120.5 -37 q-77 0 -136 23t-107.5 45.5t-94.5 22.5q-26 0 -49 -15t-43 -53zM424 375q0 -50 19.5 -82.5t64.5 -32.5t64.5 32.5t19.5 82.5v733q0 131 -84 131t-84 -131v-733z" />
<glyph unicode="&#xf6;" horiz-adv-x="1017" d="M60 449v602q0 212 119 338.5t329 126.5q211 0 330 -126.5t119 -338.5v-602q0 -465 -449 -465q-448 0 -448 465zM80 1615v298h358v-298h-358zM424 375q0 -50 19.5 -82.5t64.5 -32.5t64.5 32.5t19.5 82.5v733q0 131 -84 131t-84 -131v-733zM564 1615v298h358v-298h-358z " />
<glyph unicode="&#xf7;" horiz-adv-x="684" d="M34 638v232h616v-232h-616zM193 237v298h298v-298h-298zM193 976v298h298v-298h-298z" />
<glyph unicode="&#xf8;" horiz-adv-x="1017" d="M60 449v602q0 212 119 338.5t329 126.5q60 0 113 -11l50 197h140l-61 -244q99 -56 153 -161t54 -246v-602q0 -465 -449 -465q-76 0 -140 13l-47 -183h-140l60 231q-181 108 -181 404zM424 375q0 -50 19.5 -82.5t64.5 -32.5t64.5 32.5t19.5 82.5v733q0 131 -84 131 t-84 -131v-733z" />
<glyph unicode="&#xf9;" horiz-adv-x="1022" d="M68 383v1117h360v-1075q0 -90 14 -125.5t66 -35.5q56 0 70.5 50t14.5 129v1057h357v-1500h-358v160q-34 -86 -81.5 -131t-149.5 -45q-120 0 -183.5 50t-86.5 139.5t-23 209.5zM274 1647v347l475 -218v-223z" />
<glyph unicode="&#xfa;" horiz-adv-x="1022" d="M68 383v1117h360v-1075q0 -90 14 -125.5t66 -35.5q56 0 70.5 50t14.5 129v1057h357v-1500h-358v160q-34 -86 -81.5 -131t-149.5 -45q-120 0 -183.5 50t-86.5 139.5t-23 209.5zM275 1553v223l475 218v-347z" />
<glyph unicode="&#xfb;" horiz-adv-x="1022" d="M67 1591l241 403h408l241 -403h-359l-86 285l-86 -285h-359zM68 383v1117h360v-1075q0 -90 14 -125.5t66 -35.5q56 0 70.5 50t14.5 129v1057h357v-1500h-358v160q-34 -86 -81.5 -131t-149.5 -45q-120 0 -183.5 50t-86.5 139.5t-23 209.5z" />
<glyph unicode="&#xfc;" horiz-adv-x="1022" d="M68 383v1117h360v-1075q0 -90 14 -125.5t66 -35.5q56 0 70.5 50t14.5 129v1057h357v-1500h-358v160q-34 -86 -81.5 -131t-149.5 -45q-120 0 -183.5 50t-86.5 139.5t-23 209.5zM84 1599v298h358v-298h-358zM568 1599v298h358v-298h-358z" />
<glyph unicode="&#xfd;" horiz-adv-x="944" d="M16 1500h343l100 -1104l118 1104h345l-278 -1578q-15 -85 -57.5 -128.5t-139.5 -43.5h-404v227h172q39 0 39 27q0 14 -3 29zM234 1553v223l475 218v-347z" />
<glyph unicode="&#xfe;" horiz-adv-x="1007" d="M62 -250v2019h368v-342q90 92 200 92q183 0 255 -110t72 -295v-723q0 -115 -32.5 -208t-102 -147t-181.5 -54q-145 0 -211 178v-410h-368zM430 457q0 -81 13 -137.5t71 -56.5q56 0 68 56t12 138v624q0 68 -11.5 113t-64.5 45q-54 0 -71 -43t-17 -111v-628z" />
<glyph unicode="&#xff;" horiz-adv-x="944" d="M16 1500h343l100 -1104l118 1104h345l-278 -1578q-15 -85 -57.5 -128.5t-139.5 -43.5h-404v227h172q39 0 39 27q0 14 -3 29zM43 1599v298h358v-298h-358zM527 1599v298h358v-298h-358z" />
<glyph unicode="&#x152;" horiz-adv-x="1330" d="M50 430v926q0 155 69.5 243t193 124.5t285.5 36.5h670v-309h-337v-368h323v-299h-323v-473h360v-311h-685q-556 0 -556 430zM398 480q0 -70 27 -119.5t88 -49.5h61v1140h-55q-59 0 -90 -36.5t-31 -100.5v-834z" />
<glyph unicode="&#x153;" horiz-adv-x="1513" d="M48 449v602q0 212 119 339.5t329 127.5q153 0 265 -96q102 96 269 96q432 0 432 -426v-109q0 -101 -1 -171t-3 -108h-520v-277q0 -85 18.5 -126t69.5 -41q48 0 65 53.5t17 129.5v136h354v-85q0 -168 -41.5 -282t-140 -172t-268.5 -58q-151 0 -246 87q-105 -87 -270 -87 q-448 0 -448 467zM412 375q0 -50 19.5 -82.5t64.5 -32.5t64.5 32.5t19.5 82.5v733q0 131 -84 131t-84 -131v-733zM936 931h170v156q0 162 -83 162q-51 0 -69 -40.5t-18 -125.5v-152z" />
<glyph unicode="&#x178;" horiz-adv-x="914" d="M10 1760h349l98 -596l98 596h348l-280 -1181v-579h-332v579zM28 1859v298h358v-298h-358zM512 1859v298h358v-298h-358z" />
<glyph unicode="&#x2c6;" horiz-adv-x="970" d="M40 1591l241 403h408l241 -403h-359l-86 285l-86 -285h-359z" />
<glyph unicode="&#x2dc;" horiz-adv-x="1015" d="M89 1712q25 61 54.5 111.5t75.5 81t117 30.5t128.5 -21t105 -42t86.5 -21q27 0 50 17t43 58l166 -54q-24 -67 -53 -127t-74.5 -97t-120.5 -37q-74 0 -135.5 23t-111.5 45.5t-91 22.5q-26 0 -49 -15t-43 -53z" />
<glyph unicode="&#x2000;" horiz-adv-x="1258" />
<glyph unicode="&#x2001;" horiz-adv-x="2516" />
<glyph unicode="&#x2002;" horiz-adv-x="1258" />
<glyph unicode="&#x2003;" horiz-adv-x="2516" />
<glyph unicode="&#x2004;" horiz-adv-x="838" />
<glyph unicode="&#x2005;" horiz-adv-x="629" />
<glyph unicode="&#x2006;" horiz-adv-x="419" />
<glyph unicode="&#x2007;" horiz-adv-x="419" />
<glyph unicode="&#x2008;" horiz-adv-x="314" />
<glyph unicode="&#x2009;" horiz-adv-x="503" />
<glyph unicode="&#x200a;" horiz-adv-x="139" />
<glyph unicode="&#x2010;" horiz-adv-x="637" d="M60 509v232h516v-232h-516z" />
<glyph unicode="&#x2011;" horiz-adv-x="637" d="M60 509v232h516v-232h-516z" />
<glyph unicode="&#x2012;" horiz-adv-x="637" d="M60 509v232h516v-232h-516z" />
<glyph unicode="&#x2013;" horiz-adv-x="637" d="M60 509v232h516v-232h-516z" />
<glyph unicode="&#x2014;" horiz-adv-x="1153" d="M60 509v232h1032v-232h-1032z" />
<glyph unicode="&#x2018;" horiz-adv-x="481" d="M54 1226v289l102 245h211l-66 -236h127v-298h-374z" />
<glyph unicode="&#x2019;" horiz-adv-x="475" d="M50 1480v298h374v-289l-102 -245h-211l66 236h-127z" />
<glyph unicode="&#x201a;" horiz-adv-x="484" d="M55 0v298h374v-289l-102 -245h-211l66 236h-127z" />
<glyph unicode="&#x201c;" horiz-adv-x="950" d="M54 1226v289l102 245h211l-66 -236h127v-298h-374zM523 1226v289l102 245h211l-66 -236h127v-298h-374z" />
<glyph unicode="&#x201d;" horiz-adv-x="948" d="M50 1462v298h374v-289l-102 -245h-211l66 236h-127zM523 1462v298h374v-289l-102 -245h-211l66 236h-127z" />
<glyph unicode="&#x201e;" horiz-adv-x="957" d="M55 0v298h374v-289l-102 -245h-211l66 236h-127zM528 0v298h374v-289l-102 -245h-211l66 236h-127z" />
<glyph unicode="&#x2022;" horiz-adv-x="721" d="M47 741q0 152 82 245t231 93t231.5 -93t82.5 -245q0 -151 -82.5 -244.5t-231.5 -93.5t-231 93.5t-82 244.5z" />
<glyph unicode="&#x2026;" horiz-adv-x="1450" d="M55 1v298h358v-298h-358zM546 1v298h358v-298h-358zM1037 1v298h358v-298h-358z" />
<glyph unicode="&#x202f;" horiz-adv-x="503" />
<glyph unicode="&#x2039;" horiz-adv-x="606" d="M38 545v414l510 271v-359l-312 -122l312 -131v-358z" />
<glyph unicode="&#x203a;" horiz-adv-x="607" d="M58 260v358l312 131l-312 122v359l510 -271v-414z" />
<glyph unicode="&#x205f;" horiz-adv-x="629" />
<glyph unicode="&#x20ac;" horiz-adv-x="1075" d="M40 571v182h100v51h-100v184h100v90q0 241 115.5 369.5t350.5 128.5q224 0 330 -128t106 -356h-349v28q0 60 -13.5 105.5t-73.5 45.5t-73.5 -45.5t-13.5 -105.5v-132h315v-184h-315v-51h315v-182h-315v-122q0 -46 23.5 -81.5t63.5 -35.5q41 0 64 35.5t23 81.5v25h349 q0 -143 -50 -253.5t-147 -173.5t-239 -63q-223 0 -344.5 136.5t-121.5 363.5v87h-100z" />
<glyph unicode="&#x2122;" horiz-adv-x="1894" d="M50 1528v232h584v-232h-159v-975h-267v975h-158zM743 553v1207h406l113 -630l112 630h409v-1207h-259v871l-138 -871h-240l-147 871v-871h-256z" />
<glyph unicode="&#x25fc;" horiz-adv-x="1500" d="M0 0v1500h1500v-1500h-1500z" />
<glyph unicode="&#xfb03;" horiz-adv-x="1646" d="M40 1161v273h65v102q0 242 242 242q114 0 184 -29v-221q-25 5 -33 5q-31 0 -38 -22.5t-7 -57.5v-19h78v-277h-71v-1157h-355v1161h-65zM614 1161v273h65v102q0 242 242 242q114 0 184 -29v-221q-25 5 -33 5q-31 0 -38 -22.5t-7 -57.5v-19h78v-277h-71v-1157h-355v1161 h-65zM1218 0v1500h358v-1500h-358zM1218 1592v298h358v-298h-358z" />
<glyph unicode="&#xfb04;" horiz-adv-x="1656" d="M40 1161v273h65v102q0 242 242 242q114 0 184 -29v-221q-25 5 -33 5q-31 0 -38 -22.5t-7 -57.5v-19h78v-277h-71v-1157h-355v1161h-65zM614 1161v273h65v102q0 242 242 242q114 0 184 -29v-221q-25 5 -33 5q-31 0 -38 -22.5t-7 -57.5v-19h78v-277h-71v-1157h-355v1161 h-65zM1220 0v1760h364v-1760h-364z" />
</font>
</defs>
</svg>
